<svg version="1.1" xmlns="http://www.w3.org/2000/svg" width="600" height="250"><defs><clipPath id="chwommpeFrri"><path fill="none" stroke="none" d="M 26.5 27.5 L 595.5 27.5 L 595.5 223.5 L 26.5 223.5 L 26.5 27.5"/></clipPath><clipPath id="AxKaeXoVgeAO"><path fill="none" stroke="none" d="M 26.5 27.5 L 595.5 27.5 L 595.5 223.5 L 26.5 223.5 L 26.5 27.5"/></clipPath><clipPath id="qvdtfDizxdJI"><path fill="none" stroke="none" d="M 26.5 27.5 L 595.5 27.5 L 595.5 223.5 L 26.5 223.5 L 26.5 27.5"/></clipPath><clipPath id="TLmhXMLUkPXB"><path fill="none" stroke="none" d="M 26.5 27.5 L 595.5 27.5 L 595.5 223.5 L 26.5 223.5 L 26.5 27.5"/></clipPath><clipPath id="OGgnoUtqanVS"><path fill="none" stroke="none" d="M 26.5 27.5 L 595.5 27.5 L 595.5 223.5 L 26.5 223.5 L 26.5 27.5"/></clipPath><clipPath id="qTKqvgTmUzWl"><path fill="none" stroke="none" d="M 26.5 27.5 L 595.5 27.5 L 595.5 223.5 L 26.5 223.5 L 26.5 27.5"/></clipPath></defs><path fill="rgb(255,255,255)" stroke="none" paint-order="stroke" d="M 0.5 0.5 L 600.5 0.5 L 600.5 250.5 L 0.5 250.5 L 0.5 0.5" fill-opacity="1"/><rect fill="#FFFFFF" stroke="none" x="26" y="27" width="569" height="196" transform="matrix(1, 0, 0, 1, 0.5, 0.5)"/><path fill="rgb(255,255,255)" stroke="none" paint-order="stroke" d="M 26.5 27.5 L 595.5 27.5 L 595.5 223.5 L 26.5 223.5 L 26.5 27.5" fill-opacity="1"/><path fill="none" stroke="rgb(229,229,229)" paint-order="fill" d="M 26.5 194.5 L 595.5 194.5 M 26.5 166.5 L 595.5 166.5 M 26.5 137.5 L 595.5 137.5 M 26.5 108.5 L 595.5 108.5 M 26.5 79.5 L 595.5 79.5 M 26.5 51.5 L 595.5 51.5" stroke-opacity="1" stroke-linejoin="bevel" stroke-miterlimit="10" stroke-dasharray="" clip-path="url(#AxKaeXoVgeAO)"/><path fill="rgb(0,68,136)" stroke="rgb(0,68,136)" paint-order="fill" d="M 56.67424011230469 194.7820587158203 L 134.26515197753906 194.7820587158203 L 134.26515197753906 223.5 L 56.67424011230469 223.5 L 56.67424011230469 194.7820587158203" fill-opacity="1" clip-path="url(#qvdtfDizxdJI)" stroke-opacity="1" stroke-linejoin="bevel" stroke-miterlimit="10" stroke-dasharray=""/><path fill="rgb(0,68,136)" stroke="rgb(0,68,136)" paint-order="fill" d="M 142.88636779785156 209.14102172851562 L 220.47727966308594 209.14102172851562 L 220.47727966308594 223.5 L 142.88636779785156 223.5 L 142.88636779785156 209.14102172851562" fill-opacity="1" clip-path="url(#qvdtfDizxdJI)" stroke-opacity="1" stroke-linejoin="bevel" stroke-miterlimit="10" stroke-dasharray=""/><path fill="rgb(0,68,136)" stroke="rgb(0,68,136)" paint-order="fill" d="M 229.09849548339844 166.06410217285156 L 306.68939208984375 166.06410217285156 L 306.68939208984375 223.5 L 229.09849548339844 223.5 L 229.09849548339844 166.06410217285156" fill-opacity="1" clip-path="url(#qvdtfDizxdJI)" stroke-opacity="1" stroke-linejoin="bevel" stroke-miterlimit="10" stroke-dasharray=""/><path fill="rgb(0,68,136)" stroke="rgb(0,68,136)" paint-order="fill" d="M 315.31060791015625 180.42308044433594 L 392.9014892578125 180.42308044433594 L 392.9014892578125 223.5 L 315.31060791015625 223.5 L 315.31060791015625 180.42308044433594" fill-opacity="1" clip-path="url(#qvdtfDizxdJI)" stroke-opacity="1" stroke-linejoin="bevel" stroke-miterlimit="10" stroke-dasharray=""/><path fill="rgb(0,68,136)" stroke="rgb(0,68,136)" paint-order="fill" d="M 401.522705078125 194.7820587158203 L 479.1136474609375 194.7820587158203 L 479.1136474609375 223.5 L 401.522705078125 223.5 L 401.522705078125 194.7820587158203" fill-opacity="1" clip-path="url(#qvdtfDizxdJI)" stroke-opacity="1" stroke-linejoin="bevel" stroke-miterlimit="10" stroke-dasharray=""/><path fill="rgb(0,68,136)" stroke="rgb(0,68,136)" paint-order="fill" d="M 487.73480224609375 166.06410217285156 L 565.3257446289062 166.06410217285156 L 565.3257446289062 223.5 L 487.73480224609375 223.5 L 487.73480224609375 166.06410217285156" fill-opacity="1" clip-path="url(#qvdtfDizxdJI)" stroke-opacity="1" stroke-linejoin="bevel" stroke-miterlimit="10" stroke-dasharray=""/><path fill="rgb(221,170,51)" stroke="rgb(221,170,51)" paint-order="fill" d="M 56.67424011230469 122.9871826171875 L 134.26515197753906 122.9871826171875 L 134.26515197753906 194.7820587158203 L 56.67424011230469 194.7820587158203 L 56.67424011230469 122.9871826171875" fill-opacity="1" clip-path="url(#TLmhXMLUkPXB)" stroke-opacity="1" stroke-linejoin="bevel" stroke-miterlimit="10" stroke-dasharray=""/><path fill="rgb(221,170,51)" stroke="rgb(221,170,51)" paint-order="fill" d="M 142.88636779785156 166.06410217285156 L 220.47727966308594 166.06410217285156 L 220.47727966308594 209.14102172851562 L 142.88636779785156 209.14102172851562 L 142.88636779785156 166.06410217285156" fill-opacity="1" clip-path="url(#TLmhXMLUkPXB)" stroke-opacity="1" stroke-linejoin="bevel" stroke-miterlimit="10" stroke-dasharray=""/><path fill="rgb(221,170,51)" stroke="rgb(221,170,51)" paint-order="fill" d="M 229.09849548339844 108.62820434570312 L 306.68939208984375 108.62820434570312 L 306.68939208984375 166.06410217285156 L 229.09849548339844 166.06410217285156 L 229.09849548339844 108.62820434570312" fill-opacity="1" clip-path="url(#TLmhXMLUkPXB)" stroke-opacity="1" stroke-linejoin="bevel" stroke-miterlimit="10" stroke-dasharray=""/><path fill="rgb(221,170,51)" stroke="rgb(221,170,51)" paint-order="fill" d="M 315.31060791015625 151.7051239013672 L 392.9014892578125 151.7051239013672 L 392.9014892578125 180.42308044433594 L 315.31060791015625 180.42308044433594 L 315.31060791015625 151.7051239013672" fill-opacity="1" clip-path="url(#TLmhXMLUkPXB)" stroke-opacity="1" stroke-linejoin="bevel" stroke-miterlimit="10" stroke-dasharray=""/><path fill="rgb(221,170,51)" stroke="rgb(221,170,51)" paint-order="fill" d="M 401.522705078125 137.34616088867188 L 479.1136474609375 137.34616088867188 L 479.1136474609375 194.7820587158203 L 401.522705078125 194.7820587158203 L 401.522705078125 137.34616088867188" fill-opacity="1" clip-path="url(#TLmhXMLUkPXB)" stroke-opacity="1" stroke-linejoin="bevel" stroke-miterlimit="10" stroke-dasharray=""/><path fill="rgb(221,170,51)" stroke="rgb(221,170,51)" paint-order="fill" d="M 487.73480224609375 79.9102554321289 L 565.3257446289062 79.9102554321289 L 565.3257446289062 166.06410217285156 L 487.73480224609375 166.06410217285156 L 487.73480224609375 79.9102554321289" fill-opacity="1" clip-path="url(#TLmhXMLUkPXB)" stroke-opacity="1" stroke-linejoin="bevel" stroke-miterlimit="10" stroke-dasharray=""/><path fill="rgb(187,85,102)" stroke="rgb(187,85,102)" paint-order="fill" d="M 56.67424011230469 79.9102554321289 L 134.26515197753906 79.9102554321289 L 134.26515197753906 122.9871826171875 L 56.67424011230469 122.9871826171875 L 56.67424011230469 79.9102554321289" fill-opacity="1" clip-path="url(#OGgnoUtqanVS)" stroke-opacity="1" stroke-linejoin="bevel" stroke-miterlimit="10" stroke-dasharray=""/><path fill="rgb(187,85,102)" stroke="rgb(187,85,102)" paint-order="fill" d="M 142.88636779785156 137.34616088867188 L 220.47727966308594 137.34616088867188 L 220.47727966308594 166.06410217285156 L 142.88636779785156 166.06410217285156 L 142.88636779785156 137.34616088867188" fill-opacity="1" clip-path="url(#OGgnoUtqanVS)" stroke-opacity="1" stroke-linejoin="bevel" stroke-miterlimit="10" stroke-dasharray=""/><path fill="rgb(187,85,102)" stroke="rgb(187,85,102)" paint-order="fill" d="M 229.09849548339844 51.19230651855469 L 306.68939208984375 51.19230651855469 L 306.68939208984375 108.62820434570312 L 229.09849548339844 108.62820434570312 L 229.09849548339844 51.19230651855469" fill-opacity="1" clip-path="url(#OGgnoUtqanVS)" stroke-opacity="1" stroke-linejoin="bevel" stroke-miterlimit="10" stroke-dasharray=""/><path fill="rgb(187,85,102)" stroke="rgb(187,85,102)" paint-order="fill" d="M 315.31060791015625 94.26923370361328 L 392.9014892578125 94.26923370361328 L 392.9014892578125 151.7051239013672 L 315.31060791015625 151.7051239013672 L 315.31060791015625 94.26923370361328" fill-opacity="1" clip-path="url(#OGgnoUtqanVS)" stroke-opacity="1" stroke-linejoin="bevel" stroke-miterlimit="10" stroke-dasharray=""/><path fill="rgb(187,85,102)" stroke="rgb(187,85,102)" paint-order="fill" d="M 401.522705078125 65.55128479003906 L 479.1136474609375 65.55128479003906 L 479.1136474609375 137.34616088867188 L 401.522705078125 137.34616088867188 L 401.522705078125 65.55128479003906" fill-opacity="1" clip-path="url(#OGgnoUtqanVS)" stroke-opacity="1" stroke-linejoin="bevel" stroke-miterlimit="10" stroke-dasharray=""/><path fill="rgb(187,85,102)" stroke="rgb(187,85,102)" paint-order="fill" d="M 487.73480224609375 36.83333206176758 L 565.3257446289062 36.83333206176758 L 565.3257446289062 79.9102554321289 L 487.73480224609375 79.9102554321289 L 487.73480224609375 36.83333206176758" fill-opacity="1" clip-path="url(#OGgnoUtqanVS)" stroke-opacity="1" stroke-linejoin="bevel" stroke-miterlimit="10" stroke-dasharray=""/><path fill="none" stroke="rgb(0,0,0)" paint-order="fill" d="M 26.5 223.5 L 595.5 223.5" stroke-opacity="1" stroke-linejoin="bevel" stroke-miterlimit="10" stroke-dasharray=""/><path fill="none" stroke="rgb(0,0,0)" paint-order="fill" d="M 95.5 229.5 L 95.5 221.5 M 181.5 229.5 L 181.5 221.5 M 267.5 229.5 L 267.5 221.5 M 354.5 229.5 L 354.5 221.5 M 440.5 229.5 L 440.5 221.5 M 526.5 229.5 L 526.5 221.5" stroke-opacity="1" stroke-linejoin="bevel" stroke-miterlimit="10" stroke-dasharray=""/><text fill="rgb(68,68,68)" stroke="none" font-family="helvetica" font-size="11px" font-style="normal" font-weight="normal" text-decoration="normal" x="78.15302848815918" y="244.4521484375" text-anchor="start" dominant-baseline="alphabetic" transform="matrix(1, 0, 0, 1, 0.5, 0.5)" fill-opacity="1">Apples</text><text fill="none" stroke="rgb(0,0,0)" font-family="helvetica" font-size="11px" font-style="normal" font-weight="normal" text-decoration="normal" x="78.15302848815918" y="244.4521484375" text-anchor="start" dominant-baseline="alphabetic" transform="matrix(1, 0, 0, 1, 0.5, 0.5)" stroke-opacity="0" stroke-linejoin="bevel" stroke-miterlimit="10" stroke-dasharray="">Apples</text><text fill="rgb(68,68,68)" stroke="none" font-family="helvetica" font-size="11px" font-style="normal" font-weight="normal" text-decoration="normal" x="166.8151569366455" y="244.4521484375" text-anchor="start" dominant-baseline="alphabetic" transform="matrix(1, 0, 0, 1, 0.5, 0.5)" fill-opacity="1">Pears</text><text fill="none" stroke="rgb(0,0,0)" font-family="helvetica" font-size="11px" font-style="normal" font-weight="normal" text-decoration="normal" x="166.8151569366455" y="244.4521484375" text-anchor="start" dominant-baseline="alphabetic" transform="matrix(1, 0, 0, 1, 0.5, 0.5)" stroke-opacity="0" stroke-linejoin="bevel" stroke-miterlimit="10" stroke-dasharray="">Pears</text><text fill="rgb(68,68,68)" stroke="none" font-family="helvetica" font-size="11px" font-style="normal" font-weight="normal" text-decoration="normal" x="241.10228538513184" y="244.4521484375" text-anchor="start" dominant-baseline="alphabetic" transform="matrix(1, 0, 0, 1, 0.5, 0.5)" fill-opacity="1">Nectarines</text><text fill="none" stroke="rgb(0,0,0)" font-family="helvetica" font-size="11px" font-style="normal" font-weight="normal" text-decoration="normal" x="241.10228538513184" y="244.4521484375" text-anchor="start" dominant-baseline="alphabetic" transform="matrix(1, 0, 0, 1, 0.5, 0.5)" stroke-opacity="0" stroke-linejoin="bevel" stroke-miterlimit="10" stroke-dasharray="">Nectarines</text><text fill="rgb(68,68,68)" stroke="none" font-family="helvetica" font-size="11px" font-style="normal" font-weight="normal" text-decoration="normal" x="338.322714805603" y="244.4521484375" text-anchor="start" dominant-baseline="alphabetic" transform="matrix(1, 0, 0, 1, 0.5, 0.5)" fill-opacity="1">Plums</text><text fill="none" stroke="rgb(0,0,0)" font-family="helvetica" font-size="11px" font-style="normal" font-weight="normal" text-decoration="normal" x="338.322714805603" y="244.4521484375" text-anchor="start" dominant-baseline="alphabetic" transform="matrix(1, 0, 0, 1, 0.5, 0.5)" stroke-opacity="0" stroke-linejoin="bevel" stroke-miterlimit="10" stroke-dasharray="">Plums</text><text fill="rgb(68,68,68)" stroke="none" font-family="helvetica" font-size="11px" font-style="normal" font-weight="normal" text-decoration="normal" x="421.7848434448242" y="244.4521484375" text-anchor="start" dominant-baseline="alphabetic" transform="matrix(1, 0, 0, 1, 0.5, 0.5)" fill-opacity="1">Grapes</text><text fill="none" stroke="rgb(0,0,0)" font-family="helvetica" font-size="11px" font-style="normal" font-weight="normal" text-decoration="normal" x="421.7848434448242" y="244.4521484375" text-anchor="start" dominant-baseline="alphabetic" transform="matrix(1, 0, 0, 1, 0.5, 0.5)" stroke-opacity="0" stroke-linejoin="bevel" stroke-miterlimit="10" stroke-dasharray="">Grapes</text><text fill="rgb(68,68,68)" stroke="none" font-family="helvetica" font-size="11px" font-style="normal" font-weight="normal" text-decoration="normal" x="495.1552734375" y="244.4521484375" text-anchor="start" dominant-baseline="alphabetic" transform="matrix(1, 0, 0, 1, 0.5, 0.5)" fill-opacity="1">Strawberries</text><text fill="none" stroke="rgb(0,0,0)" font-family="helvetica" font-size="11px" font-style="normal" font-weight="normal" text-decoration="normal" x="495.1552734375" y="244.4521484375" text-anchor="start" dominant-baseline="alphabetic" transform="matrix(1, 0, 0, 1, 0.5, 0.5)" stroke-opacity="0" stroke-linejoin="bevel" stroke-miterlimit="10" stroke-dasharray="">Strawberries</text><path fill="none" stroke="rgb(0,0,0)" paint-order="fill" d="M 26.5 223.5 L 26.5 27.5" stroke-opacity="1" stroke-linejoin="bevel" stroke-miterlimit="10" stroke-dasharray=""/><path fill="none" stroke="rgb(0,0,0)" paint-order="fill" d="M 20.5 223.5 L 28.5 223.5 M 20.5 194.5 L 28.5 194.5 M 20.5 166.5 L 28.5 166.5 M 20.5 137.5 L 28.5 137.5 M 20.5 108.5 L 28.5 108.5 M 20.5 79.5 L 28.5 79.5 M 20.5 51.5 L 28.5 51.5" stroke-opacity="1" stroke-linejoin="bevel" stroke-miterlimit="10" stroke-dasharray=""/><text fill="rgb(68,68,68)" stroke="none" font-family="helvetica" font-size="11px" font-style="normal" font-weight="normal" text-decoration="normal" x="8.883333206176758" y="226.945068359375" text-anchor="start" dominant-baseline="alphabetic" transform="matrix(1, 0, 0, 1, 0.5, 0.5)" fill-opacity="1">0</text><text fill="none" stroke="rgb(0,0,0)" font-family="helvetica" font-size="11px" font-style="normal" font-weight="normal" text-decoration="normal" x="8.883333206176758" y="226.945068359375" text-anchor="start" dominant-baseline="alphabetic" transform="matrix(1, 0, 0, 1, 0.5, 0.5)" stroke-opacity="0" stroke-linejoin="bevel" stroke-miterlimit="10" stroke-dasharray="">0</text><text fill="rgb(68,68,68)" stroke="none" font-family="helvetica" font-size="11px" font-style="normal" font-weight="normal" text-decoration="normal" x="8.883333206176758" y="198.2271270751953" text-anchor="start" dominant-baseline="alphabetic" transform="matrix(1, 0, 0, 1, 0.5, 0.5)" fill-opacity="1">2</text><text fill="none" stroke="rgb(0,0,0)" font-family="helvetica" font-size="11px" font-style="normal" font-weight="normal" text-decoration="normal" x="8.883333206176758" y="198.2271270751953" text-anchor="start" dominant-baseline="alphabetic" transform="matrix(1, 0, 0, 1, 0.5, 0.5)" stroke-opacity="0" stroke-linejoin="bevel" stroke-miterlimit="10" stroke-dasharray="">2</text><text fill="rgb(68,68,68)" stroke="none" font-family="helvetica" font-size="11px" font-style="normal" font-weight="normal" text-decoration="normal" x="8.883333206176758" y="169.50917053222656" text-anchor="start" dominant-baseline="alphabetic" transform="matrix(1, 0, 0, 1, 0.5, 0.5)" fill-opacity="1">4</text><text fill="none" stroke="rgb(0,0,0)" font-family="helvetica" font-size="11px" font-style="normal" font-weight="normal" text-decoration="normal" x="8.883333206176758" y="169.50917053222656" text-anchor="start" dominant-baseline="alphabetic" transform="matrix(1, 0, 0, 1, 0.5, 0.5)" stroke-opacity="0" stroke-linejoin="bevel" stroke-miterlimit="10" stroke-dasharray="">4</text><text fill="rgb(68,68,68)" stroke="none" font-family="helvetica" font-size="11px" font-style="normal" font-weight="normal" text-decoration="normal" x="8.883333206176758" y="140.79122924804688" text-anchor="start" dominant-baseline="alphabetic" transform="matrix(1, 0, 0, 1, 0.5, 0.5)" fill-opacity="1">6</text><text fill="none" stroke="rgb(0,0,0)" font-family="helvetica" font-size="11px" font-style="normal" font-weight="normal" text-decoration="normal" x="8.883333206176758" y="140.79122924804688" text-anchor="start" dominant-baseline="alphabetic" transform="matrix(1, 0, 0, 1, 0.5, 0.5)" stroke-opacity="0" stroke-linejoin="bevel" stroke-miterlimit="10" stroke-dasharray="">6</text><text fill="rgb(68,68,68)" stroke="none" font-family="helvetica" font-size="11px" font-style="normal" font-weight="normal" text-decoration="normal" x="8.883333206176758" y="112.07327270507812" text-anchor="start" dominant-baseline="alphabetic" transform="matrix(1, 0, 0, 1, 0.5, 0.5)" fill-opacity="1">8</text><text fill="none" stroke="rgb(0,0,0)" font-family="helvetica" font-size="11px" font-style="normal" font-weight="normal" text-decoration="normal" x="8.883333206176758" y="112.07327270507812" text-anchor="start" dominant-baseline="alphabetic" transform="matrix(1, 0, 0, 1, 0.5, 0.5)" stroke-opacity="0" stroke-linejoin="bevel" stroke-miterlimit="10" stroke-dasharray="">8</text><text fill="rgb(68,68,68)" stroke="none" font-family="helvetica" font-size="11px" font-style="normal" font-weight="normal" text-decoration="normal" x="2.7666664123535156" y="83.3553237915039" text-anchor="start" dominant-baseline="alphabetic" transform="matrix(1, 0, 0, 1, 0.5, 0.5)" fill-opacity="1">10</text><text fill="none" stroke="rgb(0,0,0)" font-family="helvetica" font-size="11px" font-style="normal" font-weight="normal" text-decoration="normal" x="2.7666664123535156" y="83.3553237915039" text-anchor="start" dominant-baseline="alphabetic" transform="matrix(1, 0, 0, 1, 0.5, 0.5)" stroke-opacity="0" stroke-linejoin="bevel" stroke-miterlimit="10" stroke-dasharray="">10</text><text fill="rgb(68,68,68)" stroke="none" font-family="helvetica" font-size="11px" font-style="normal" font-weight="normal" text-decoration="normal" x="2.7666664123535156" y="54.63737487792969" text-anchor="start" dominant-baseline="alphabetic" transform="matrix(1, 0, 0, 1, 0.5, 0.5)" fill-opacity="1">12</text><text fill="none" stroke="rgb(0,0,0)" font-family="helvetica" font-size="11px" font-style="normal" font-weight="normal" text-decoration="normal" x="2.7666664123535156" y="54.63737487792969" text-anchor="start" dominant-baseline="alphabetic" transform="matrix(1, 0, 0, 1, 0.5, 0.5)" stroke-opacity="0" stroke-linejoin="bevel" stroke-miterlimit="10" stroke-dasharray="">12</text><path fill="rgb(255,255,255)" stroke="rgb(229,229,229)" paint-order="fill" d="M 36.5 37.5 L 224.2999973297119 37.5 L 224.2999973297119 77.5 L 36.5 77.5 L 36.5 37.5" fill-opacity="0.9490196078431372" clip-path="url(#qTKqvgTmUzWl)" stroke-opacity="0.5019607843137255" stroke-linejoin="bevel" stroke-miterlimit="10" stroke-dasharray=""/><g clip-path="url(#qTKqvgTmUzWl)"><text fill="rgb(68,68,68)" stroke="none" font-family="helvetica" font-size="13px" font-style="normal" font-weight="normal" text-decoration="normal" x="71" y="57" text-anchor="start" dominant-baseline="central" transform="matrix(1, 0, 0, 1, 0.5, 0.5)" fill-opacity="1">2015</text></g><path fill="rgb(0,68,136)" stroke="rgb(0,68,136)" paint-order="fill" d="M 48.5 49.5 L 64.5 49.5 L 64.5 65.5 L 48.5 65.5 L 48.5 49.5" fill-opacity="1" clip-path="url(#qTKqvgTmUzWl)" stroke-opacity="1" stroke-linejoin="bevel" stroke-miterlimit="10" stroke-dasharray=""/><g clip-path="url(#qTKqvgTmUzWl)"><text fill="rgb(68,68,68)" stroke="none" font-family="helvetica" font-size="13px" font-style="normal" font-weight="normal" text-decoration="normal" x="127.9333324432373" y="57" text-anchor="start" dominant-baseline="central" transform="matrix(1, 0, 0, 1, 0.5, 0.5)" fill-opacity="1">2016</text></g><path fill="rgb(221,170,51)" stroke="rgb(221,170,51)" paint-order="fill" d="M 105.4333324432373 49.5 L 121.4333324432373 49.5 L 121.4333324432373 65.5 L 105.4333324432373 65.5 L 105.4333324432373 49.5" fill-opacity="1" clip-path="url(#qTKqvgTmUzWl)" stroke-opacity="1" stroke-linejoin="bevel" stroke-miterlimit="10" stroke-dasharray=""/><g clip-path="url(#qTKqvgTmUzWl)"><text fill="rgb(68,68,68)" stroke="none" font-family="helvetica" font-size="13px" font-style="normal" font-weight="normal" text-decoration="normal" x="184.8666648864746" y="57" text-anchor="start" dominant-baseline="central" transform="matrix(1, 0, 0, 1, 0.5, 0.5)" fill-opacity="1">2017</text></g><path fill="rgb(187,85,102)" stroke="rgb(187,85,102)" paint-order="fill" d="M 162.3666648864746 49.5 L 178.3666648864746 49.5 L 178.3666648864746 65.5 L 162.3666648864746 65.5 L 162.3666648864746 49.5" fill-opacity="1" clip-path="url(#qTKqvgTmUzWl)" stroke-opacity="1" stroke-linejoin="bevel" stroke-miterlimit="10" stroke-dasharray=""/><text fill="rgb(68,68,68)" stroke="none" font-family="helvetica" font-size="13px" font-style="normal" font-weight="bold" text-decoration="normal" x="26" y="19.1689453125" text-anchor="start" dominant-baseline="alphabetic" transform="matrix(1, 0, 0, 1, 0.5, 0.5)" fill-opacity="1">Fruit Counts by Year</text><text fill="none" stroke="rgb(0,0,0)" font-family="helvetica" font-size="13px" font-style="normal" font-weight="bold" text-decoration="normal" x="26" y="19.1689453125" text-anchor="start" dominant-baseline="alphabetic" transform="matrix(1, 0, 0, 1, 0.5, 0.5)" stroke-opacity="0" stroke-miterlimit="10" stroke-dasharray="">Fruit Counts by Year</text></svg>